<?xml version="1.0" encoding="utf-8"?>
<!-- Generator: Adobe Illustrator 25.2.0, SVG Export Plug-In . SVG Version: 6.00 Build 0)  -->
<svg version="1.1" id="Layer_1" xmlns="http://www.w3.org/2000/svg" xmlns:xlink="http://www.w3.org/1999/xlink" x="0px" y="0px"
	 viewBox="0 0 850 300" style="enable-background:new 0 0 850 300;" xml:space="preserve">
<style type="text/css">
	<!-- .st0{fill:#0D1117;} -->
	.st1{clip-path:url(#SVGID_2_);}
	.st2{fill:url(#bg-port_1_);}
	.st3{fill:none;stroke:url(#lines-port_1_);stroke-width:1.0527;}
	.st4{enable-background:new    ;}
	.st5{fill:#F7F7F7;}
	.st6{fill:#FFFF00;}
	.st7{fill:#FFFFFF;}

	 * {
      transform-origin: center;
      transform-box: fill-box;
    }

    #title-port {
      animation: fade-in-bottom 0.64s cubic-bezier(0, 0, 0.2, 1) forwards;
      opacity: 0;
      animation-delay: 0.4s;
    }

    #des-port {
      animation: fade-in-bottom 0.64s cubic-bezier(0, 0, 0.2, 1) forwards;
      opacity: 0;
      animation-delay: 0.7s;
    }

    @keyframes fade-in-bottom {
      from {
        opacity: 0;
        transform: translate3d(0, -20px, 0);
      }
      to {
        opacity: 1;
        transform: translate3d(0, 0, 0);
      }
    }
</style>

<!-- <rect x="-0.7" class="st0" width="850.7" height="300"/> -->
<g>
	<g>
		<defs>
			<path id="SVGID_1_" d="M20,0h810c11,0,20,9,20,20v260c0,11-9,20-20,20H20c-11,0-20-9-20-20V20C0,9,9,0,20,0z"/>
		</defs>
		<clipPath id="SVGID_2_">
			<use xlink:href="#SVGID_1_"  style="overflow:visible;"/>
		</clipPath>
		<g class="st1">
			
				<linearGradient id="bg-port_1_" gradientUnits="userSpaceOnUse" x1="425" y1="70.5" x2="425" y2="-784.5" gradientTransform="matrix(1 0 0 -1 0 -476)">
				<stop  offset="0" style="stop-color:#FFF600"/>
				<stop  offset="0.4995" style="stop-color:#FFF600;stop-opacity:0.23"/>
				<stop  offset="0.9512" style="stop-color:#D5CF2F;stop-opacity:0"/>
			</linearGradient>
			<path id="bg-port" class="st2" d="M20,0h810c11,0,20,9,20,20v260c0,11-9,20-20,20H20c-11,0-20-9-20-20V20C0,9,9,0,20,0z"/>
			
				<linearGradient id="lines-port_1_" gradientUnits="userSpaceOnUse" x1="402.8828" y1="-131.5001" x2="403.1498" y2="-885" gradientTransform="matrix(1 0 0 -1 0 -476)">
				<stop  offset="0" style="stop-color:#FAFAFA;stop-opacity:0.5"/>
				<stop  offset="0.6538" style="stop-color:#FAFAFA;stop-opacity:0"/>
			</linearGradient>
			<path id="lines-port" class="st3" d="M-20.2-5.3c2.8,8.9,25.1,25.4,91.6,19.5c83.2-7.4,142.6-8.4,198.4,20s119.5,81.1,227.4,84.7
				c107.9,3.7,182.1-14.7,243.2,48.4c48.8,50.5,112.3,74,137.9,79.5 M14.5-46.8c2.8,8.9,25.1,25.4,91.6,19.5
				c83.2-7.4,142.6-8.4,198.4,20s119.6,81,227.5,84.7s182.1-14.7,243.2,48.4c48.8,50.5,112.3,74,137.9,79.5 M49.3-88.4
				c2.8,8.9,25.1,25.4,91.6,19.5c83.2-7.4,142.6-8.4,198.4,20s119.5,81.1,227.4,84.7c107.9,3.7,182.1-14.7,243.2,48.4
				c48.8,50.5,112.3,74,137.9,79.5 M84-130c2.8,8.9,25.1,25.4,91.6,19.5c83.2-7.4,142.6-8.4,198.4,20s119.5,81,227.4,84.7
				s182.1-14.7,243.2,48.4c48.8,50.5,112.3,74,137.9,79.5 M-176,156.9c2.8,8.9,25.1,25.4,91.6,19.5c83.2-7.4,142.6-8.4,198.4,20
				s119.5,81.1,227.4,84.7c107.9,3.7,182.1-14.7,243.2,48.4c48.8,50.5,112.3,74,137.9,79.5 M-141.3,115.3
				c2.8,8.9,25.1,25.4,91.6,19.5c83.2-7.4,142.6-8.4,198.4,20s119.5,81.1,227.4,84.7c107.9,3.7,182.1-14.7,243.2,48.4
				c48.8,50.5,112.3,74,137.9,79.5 M-106.5,73.7c2.8,8.9,25.1,25.4,91.6,19.5c83.2-7.4,142.6-8.4,198.4,20s119.5,81.1,227.4,84.7
				c107.9,3.7,182.1-14.7,243.2,48.4c48.8,50.5,112.3,74,137.9,79.5 M-71.8,32.1C-69,41-46.7,57.5,19.8,51.6
				c83.2-7.4,142.6-8.4,198.4,20s119.5,81.1,227.4,84.7c107.9,3.7,182.1-14.7,243.2,48.4c48.8,50.5,112.3,74,137.9,79.5"/>
			<g id="title-port">
				<g class="st4">
					<path class="st5" d="M165.5,139c-0.9,0-1.7-0.1-2.3-0.3c-0.7-0.2-1.2-0.4-1.4-0.6c-0.3-0.2-0.5-0.5-0.7-1s-0.3-0.8-0.3-1.1
						c0-0.2-0.1-0.6-0.1-1.3v-27c0-0.6,0-1.2,0.1-1.7c0.1-0.4,0.2-0.8,0.5-1.3s0.7-0.8,1.5-1s1.7-0.3,2.8-0.3c1,0,1.8,0.1,2.3,0.2
						c0.6,0.1,1,0.3,1.4,0.6c0.4,0.3,0.6,0.6,0.8,1c0.1,0.2,0.2,0.6,0.3,1.1v1.4l-0.1,14.5l14.4-5.9v-8.6c0-0.6,0-1.2,0.1-1.7
						c0.1-0.4,0.2-0.8,0.5-1.3s0.7-0.8,1.5-1s1.7-0.3,2.8-0.3c1,0,1.8,0.1,2.3,0.2c0.6,0.1,1,0.3,1.4,0.6c0.4,0.3,0.6,0.6,0.8,1
						c0.1,0.2,0.2,0.6,0.3,1.1v1.4v27c0,0.9,0,1.4-0.1,1.7c0,0.3-0.2,0.7-0.5,1.2s-0.8,0.9-1.5,1c-0.7,0.2-1.6,0.3-2.8,0.3
						c-0.9,0-1.7-0.1-2.3-0.3c-0.7-0.2-1.2-0.4-1.4-0.6c-0.3-0.2-0.5-0.5-0.7-1s-0.3-0.8-0.3-1.1c0-0.2-0.1-0.6-0.1-1.3v-9.9
						l-14.4,5.7l0.1,4.2c0,0.9,0,1.4-0.1,1.7c0,0.3-0.2,0.7-0.5,1.2s-0.8,0.9-1.5,1C167.5,138.8,166.6,139,165.5,139z"/>
					<path class="st5" d="M203.1,112.9c-1,0-1.9-0.1-2.7-0.3c-0.6-0.1-1.1-0.4-1.4-0.9c-0.3-0.4-0.5-0.8-0.5-1.2
						c-0.1-0.4-0.1-0.9-0.1-1.5c0-0.5,0-1,0.1-1.5c0.1-0.3,0.2-0.7,0.5-1.1s0.8-0.7,1.4-0.9c0.8-0.2,1.7-0.3,2.8-0.3
						c1,0,1.9,0.1,2.7,0.3c0.7,0.1,1.2,0.5,1.5,0.9s0.4,0.8,0.5,1.1c0,0.3,0.1,0.8,0.1,1.5c0,0.8,0,1.3-0.1,1.5
						c-0.1,0.3-0.2,0.7-0.5,1.1c-0.3,0.5-0.8,0.8-1.5,0.9C205.1,112.8,204.2,112.9,203.1,112.9z M203.1,139c-1,0-1.9-0.1-2.7-0.3
						c-0.6-0.1-1.1-0.5-1.4-0.9c-0.3-0.4-0.4-0.8-0.5-1.1c-0.1-0.4-0.1-0.9-0.1-1.5v-15.4c0-0.5,0-1,0.1-1.5
						c0.1-0.3,0.2-0.7,0.5-1.1s0.8-0.7,1.4-0.9c0.8-0.2,1.7-0.3,2.8-0.3c1,0,1.7,0.1,2.3,0.2c0.6,0.2,1.1,0.3,1.4,0.5
						c0.3,0.3,0.6,0.6,0.7,0.9c0.1,0.2,0.2,0.5,0.3,1v1.2v15.3c0,0.8,0,1.2-0.1,1.5c-0.1,0.4-0.2,0.8-0.5,1.1
						c-0.3,0.5-0.8,0.8-1.5,0.9C205.1,138.9,204.2,139,203.1,139z"/>
					<path class="st5" d="M212.4,146.7c-0.1,0-0.2,0-0.3-0.1s-0.3-0.2-0.4-0.5c-0.2-0.4-0.3-0.8-0.3-1.2c0-0.5,0.1-0.9,0.3-1.3
						c0.1-0.3,0.3-0.5,0.5-0.5l0.2-0.1c0.1,0,0.3-0.2,0.7-0.4c0.2-0.1,0.6-0.5,1.1-1.3c0.5-0.7,0.8-1.5,0.8-2.3
						c-1.2-0.2-2.1-0.5-2.6-1c-0.6-0.6-1-1.8-1-3.6c0.1-0.8,0.1-1.4,0.2-1.7c0.1-0.4,0.3-0.8,0.5-1.3c0.3-0.5,0.8-0.9,1.5-1.1
						c0.8-0.2,1.8-0.3,2.9-0.3c1.9,0,3.3,0.3,4,1c0.6,0.6,1,1.8,1,3.6c0,0.7-0.1,1.3-0.2,1.9c-0.3,2.7-1.3,5.1-3,7.2
						C216.7,145.7,214.7,146.7,212.4,146.7z"/>
					<path class="st5" d="M251.4,139c-0.9,0-1.7-0.1-2.3-0.3c-0.7-0.2-1.2-0.4-1.4-0.6c-0.3-0.2-0.5-0.5-0.7-1s-0.3-0.8-0.3-1.1
						c0-0.2-0.1-0.6-0.1-1.4v-27.1c0-0.6,0-1.2,0.1-1.7c0.1-0.4,0.2-0.8,0.5-1.3s0.7-0.8,1.5-1s1.7-0.3,2.8-0.3c1,0,1.8,0.1,2.3,0.2
						c0.6,0.1,1,0.3,1.4,0.6c0.4,0.3,0.6,0.6,0.8,1c0.1,0.2,0.2,0.6,0.3,1.1v1.4v27.1c0,0.9,0,1.4-0.1,1.7c0,0.3-0.2,0.7-0.5,1.2
						s-0.8,0.9-1.5,1C253.5,138.9,252.6,139,251.4,139z"/>
					<path class="st5" d="M260.8,120.2c-0.1,0-0.2,0-0.3-0.1c-0.1-0.1-0.3-0.3-0.4-0.5c-0.2-0.3-0.3-0.7-0.3-1.3
						c0-0.5,0.1-0.9,0.3-1.3c0.2-0.3,0.3-0.4,0.5-0.5l0.2-0.1c0.1,0,0.2,0,0.3-0.1c0.1,0,0.3-0.1,0.6-0.2c0.4-0.2,0.6-0.4,0.8-0.6
						c0.3-0.3,0.5-0.7,0.6-1.2s0.3-1.2,0.3-1.9c-1.2-0.1-2.1-0.5-2.6-1c-0.6-0.6-1-1.8-1-3.6c0-0.6,0-1.2,0.1-1.7
						c0-0.3,0.2-0.8,0.5-1.4c0.3-0.5,0.8-0.9,1.6-1.1c0.7-0.2,1.6-0.3,2.9-0.3c1.9,0,3.3,0.3,4.1,1c0.6,0.5,0.9,1.5,0.9,2.8v0.8
						c0,0.7,0,1.3-0.1,1.8c-0.3,2.9-1.2,5.3-2.8,7.3C265.3,119.2,263.2,120.2,260.8,120.2z"/>
					<path class="st5" d="M278,139c-1,0-1.9-0.1-2.7-0.3c-0.6-0.1-1.1-0.5-1.4-0.9s-0.4-0.8-0.5-1.1c-0.1-0.4-0.1-0.9-0.1-1.5v-15.4
						c0-0.5,0-1.1,0.1-1.6c0.1-0.3,0.2-0.7,0.5-1.1s0.8-0.7,1.5-0.9c0.8-0.2,1.7-0.3,2.8-0.3c1.8,0,3,0.3,3.6,0.8s0.9,1.3,0.9,2.3
						c0,0,0.1-0.1,0.1-0.2s0.1-0.2,0.1-0.2l0.3-0.3c0.2-0.1,0.3-0.3,0.5-0.4c0.4-0.4,0.8-0.7,1.2-1c0.5-0.3,1-0.5,1.7-0.8
						c0.7-0.2,1.4-0.3,2.1-0.3c3.7,0,6.4,1.3,8.2,3.8c0.4-0.5,0.9-1,1.5-1.4c0.5-0.4,1.4-1,2.6-1.6s2.4-0.9,3.8-0.9
						c2.8,0,5.3,0.9,7.2,2.7c1.9,1.8,2.9,4.8,2.9,8.9v7.7c0,0.8,0,1.2-0.1,1.5c0,0.4-0.2,0.8-0.5,1.2c-0.3,0.5-0.8,0.8-1.5,0.9
						c-0.8,0.2-1.7,0.3-2.8,0.3c-1.1,0-2-0.1-2.7-0.3c-0.6-0.1-1.1-0.4-1.4-0.9c-0.3-0.4-0.4-0.8-0.5-1.1c-0.1-0.4-0.1-0.9-0.1-1.5
						v-7.7c0-2.5-1.1-3.8-3.3-3.8c-1.3,0-2.1,0.3-2.5,1c-0.5,0.7-0.7,1.6-0.7,2.9v7.7c0,0.8,0,1.3-0.1,1.5c0,0.3-0.2,0.6-0.5,1.1
						s-0.8,0.8-1.5,0.9c-0.8,0.2-1.7,0.3-2.8,0.3c-1.1,0-2-0.1-2.7-0.3c-0.6-0.1-1.1-0.4-1.4-0.9c-0.3-0.4-0.4-0.8-0.5-1.1
						c-0.1-0.4-0.1-0.9-0.1-1.5v-7.7c0-2.5-1.1-3.8-3.3-3.8c-2.2,0-3.2,1.3-3.2,3.8v7.8c0,0.8,0,1.2-0.1,1.5c0,0.3-0.2,0.7-0.5,1.1
						c-0.3,0.5-0.8,0.8-1.5,0.9C280,138.9,279.1,139,278,139z"/>
				</g>
				<g class="st4">
					<path class="st6" d="M345.7,139c-1.1,0-2-0.1-2.6-0.3c-0.7-0.1-1.2-0.5-1.5-0.9c-0.3-0.5-0.5-0.9-0.5-1.3
						c-0.1-0.6-0.1-1.2-0.1-1.8v-27c0-0.6,0-1.2,0.1-1.7c0.1-0.4,0.2-0.8,0.5-1.3s0.7-0.8,1.5-1s1.7-0.3,2.8-0.3h5
						c1.5,0,3.1,0.1,5,0.1c5.3,0,9.8,1.7,13.8,5.1s5.9,7.6,5.9,12.5s-1.9,9.2-5.8,12.7s-8.6,5.3-14.1,5.3L345.7,139L345.7,139z
						 M350.5,130.4h5.2c2.6,0,4.9-0.9,7-2.6c2.1-1.7,3.1-3.9,3.1-6.5s-1-4.7-3-6.5s-4.4-2.6-7.2-2.6h-5.2v18.2H350.5z"/>
					<path class="st6" d="M392.8,139.3c-1.6,0-3.3-0.3-4.9-0.8c-1.8-0.6-3.4-1.3-4.8-2.2c-1.5-1-2.8-2.3-3.6-3.8
						c-0.9-1.6-1.4-3.3-1.4-5.1c0-1.9,0.5-3.6,1.4-5.2c1-1.5,2.2-2.8,3.6-3.7c1.4-0.9,3-1.6,4.7-2.2c1.6-0.5,3.2-0.7,4.9-0.7
						c1.3,0,2.6,0.1,4,0.4c0.2,0,0.4,0.1,0.6,0.2c0.3,0.1,0.5,0.1,0.6,0.2c0.2,0.1,0.3,0.1,0.5,0.2l0.1-0.1c0.7-0.4,1.9-0.6,3.5-0.6
						c1,0,1.9,0.1,2.7,0.3c0.7,0.1,1.2,0.5,1.5,0.9s0.4,0.8,0.5,1.2c0,0.2,0.1,0.7,0.1,1.5v15.3c0,0.8,0,1.3-0.1,1.5
						c0,0.3-0.2,0.6-0.5,1.1c-0.3,0.4-0.7,0.7-1.5,0.9s-1.7,0.3-2.8,0.3c-1.7,0-2.8-0.2-3.4-0.6h-0.1
						C396.9,139,395,139.3,392.8,139.3z M392.6,131.4c0.6,0,1.1-0.1,1.6-0.2c0.8-0.2,1.3-0.4,1.7-0.6l1.5-0.6c0-0.7,0-1.6,0-2.7
						c0-1.1,0-1.9,0-2.3c-0.3-0.1-0.6-0.3-0.9-0.5s-0.6-0.4-0.8-0.4c-0.1-0.1-0.3-0.2-0.6-0.3c-0.3-0.1-0.6-0.2-0.9-0.2
						s-0.8,0-1.3,0c-1.2,0-2.3,0.4-3.3,1.1s-1.6,1.7-1.6,2.9c0,1.3,0.5,2.2,1.5,2.9C390.4,131.1,391.5,131.4,392.6,131.4z"/>
					<path class="st6" d="M415.8,139c-1,0-1.9-0.1-2.7-0.3c-0.6-0.1-1.1-0.5-1.4-1s-0.5-0.9-0.5-1.1c-0.1-0.5-0.1-1-0.1-1.5v-18
						l0.3-0.6c0.1-0.3,0.4-0.6,0.7-0.9c0.3-0.2,0.7-0.4,1.4-0.5c0.6-0.1,1.4-0.2,2.3-0.2c1,0,2,0.1,2.8,0.3c0.6,0.1,1,0.4,1.3,0.7
						l1.5-0.3c1.4-0.3,2.7-0.4,4-0.4c1.6,0,3.2,0.2,4.9,0.7c1.7,0.6,3.3,1.3,4.7,2.2c1.4,0.9,2.6,2.1,3.6,3.7
						c0.9,1.6,1.4,3.3,1.4,5.2l-0.1,8.3c0,0.7,0,1.2-0.1,1.5c0,0.3-0.2,0.7-0.5,1.1c-0.3,0.5-0.8,0.8-1.5,0.9
						c-0.8,0.2-1.7,0.3-2.8,0.3c-1,0-1.8-0.1-2.5-0.3c-0.7-0.1-1.2-0.5-1.5-0.9s-0.5-0.8-0.5-1.1c0-0.1-0.1-0.4-0.1-0.8
						c0-0.4,0-0.6,0-0.8l-0.1-8.2c0-1-0.6-2-1.8-2.8c-1-0.7-2.1-1.1-3.3-1.1c-2.6,0-4.2,0.5-4.8,1.5v10.7c0,0.2,0,0.4,0,0.8
						c0,0.3,0,0.6-0.1,0.7c-0.1,0.4-0.2,0.8-0.4,1.1c-0.3,0.5-0.8,0.8-1.5,0.9C417.8,138.9,416.8,139,415.8,139z"/>
					<path class="st6" d="M448.5,112.9c-1,0-1.9-0.1-2.7-0.3c-0.6-0.1-1.1-0.4-1.4-0.9c-0.3-0.4-0.5-0.8-0.5-1.2
						c-0.1-0.4-0.1-0.9-0.1-1.5c0-0.5,0-1,0.1-1.5c0.1-0.3,0.2-0.7,0.5-1.1s0.8-0.7,1.4-0.9c0.8-0.2,1.7-0.3,2.8-0.3
						c1,0,1.9,0.1,2.7,0.3c0.7,0.1,1.2,0.5,1.5,0.9s0.4,0.8,0.5,1.1c0,0.3,0.1,0.8,0.1,1.5c0,0.8,0,1.3-0.1,1.5
						c-0.1,0.3-0.2,0.7-0.5,1.1c-0.3,0.5-0.8,0.8-1.5,0.9C450.5,112.8,449.6,112.9,448.5,112.9z M448.5,139c-1,0-1.9-0.1-2.7-0.3
						c-0.6-0.1-1.1-0.5-1.4-0.9s-0.4-0.8-0.5-1.1c-0.1-0.4-0.1-0.9-0.1-1.5v-15.4c0-0.5,0-1,0.1-1.5c0.1-0.3,0.2-0.7,0.5-1.1
						s0.8-0.7,1.4-0.9c0.8-0.2,1.7-0.3,2.8-0.3c1,0,1.7,0.1,2.3,0.2c0.6,0.2,1.1,0.3,1.4,0.5c0.3,0.3,0.6,0.6,0.7,0.9
						c0.1,0.2,0.2,0.5,0.3,1v1.2v15.3c0,0.8,0,1.2-0.1,1.5c-0.1,0.4-0.2,0.8-0.5,1.1c-0.3,0.5-0.8,0.8-1.5,0.9
						C450.5,138.9,449.6,139,448.5,139z"/>
					<path class="st6" d="M468.1,139.4c-3.6,0-7.1-0.8-10.3-2.4c-0.7-0.4-1-0.9-1-1.5c0-0.8,0.7-2,2.1-3.6c0.4-0.5,1-0.8,1.8-0.8
						c0.9,0,2,0.3,3.3,0.9c1.8,0.8,3.3,1.2,4.5,1.2c2.2,0,3.3-0.3,3.3-1c0-0.3-0.3-0.5-1-0.8c-0.7-0.2-1.5-0.4-2.6-0.5
						c-1-0.1-2.1-0.4-3.3-0.8c-1.3-0.4-2.5-0.8-3.4-1.4c-1-0.5-1.9-1.3-2.6-2.4s-1-2.4-1-4c0-4.6,3.9-6.9,11.7-6.9
						c2.6,0,5.2,0.5,7.9,1.5c1.3,0.5,1.9,1.1,1.9,1.9c0,0.6-0.4,1.4-1.1,2.4c-0.8,1-1.7,1.6-2.5,1.6c-0.4,0-1-0.1-1.8-0.4
						c-1.5-0.6-3-0.9-4.4-0.9c-2.1,0-3.2,0.3-3.2,1c0,0.4,0.4,0.8,1.1,1.1c0.8,0.3,1.6,0.5,2.6,0.6c0.9,0.1,2,0.3,3.4,0.6
						c0.9,0.2,2.1,0.6,3.5,1c1.1,0.5,2,1.2,2.6,2.2c0.7,1,1,2.2,1,3.7c0,1.6-0.3,2.9-1,3.9c-0.7,1.1-1.7,1.9-3,2.4
						c-1.4,0.5-2.7,0.9-3.9,1.1C471.1,139.3,469.6,139.4,468.1,139.4z"/>
					<path class="st6" d="M488.7,139c-1,0-1.9-0.1-2.7-0.3c-0.6-0.1-1.1-0.5-1.4-1s-0.5-0.9-0.5-1.1c-0.1-0.5-0.1-1-0.1-1.5
						l0.1-29.2c0.1-0.5,0.2-0.8,0.3-1c0.1-0.3,0.4-0.6,0.7-0.9c0.3-0.2,0.7-0.4,1.4-0.5c0.4-0.1,1.2-0.2,2.3-0.2
						c1.2,0,2.1,0.1,2.8,0.2c0.7,0.1,1.2,0.4,1.4,0.9c0.3,0.4,0.4,0.8,0.5,1.1c0.1,0.4,0.1,1,0.1,1.6v8.7c0.1-0.1,0.4-0.1,0.6-0.2
						c1.4-0.3,2.7-0.4,4-0.4c1.6,0,3.2,0.2,4.9,0.7c1.7,0.6,3.3,1.3,4.7,2.2c1.4,0.9,2.6,2.1,3.6,3.7c0.9,1.6,1.4,3.3,1.4,5.2
						l-0.1,8.3c0,0.7,0,1.2-0.1,1.5c0,0.3-0.2,0.7-0.5,1.1c-0.3,0.5-0.8,0.8-1.5,0.9c-0.8,0.2-1.7,0.3-2.8,0.3c-1,0-1.8-0.1-2.5-0.3
						c-0.7-0.1-1.2-0.5-1.5-0.9s-0.5-0.8-0.5-1.1c0-0.1-0.1-0.4-0.1-0.8c0-0.4,0-0.6,0-0.8l-0.1-8.2c0-1-0.6-2-1.8-2.8
						c-1-0.7-2.1-1.1-3.3-1.1c-2.6,0-4.2,0.5-4.8,1.5v10.7c0,0.2,0,0.4,0,0.8c0,0.3,0,0.6-0.1,0.7c-0.1,0.4-0.2,0.8-0.4,1.1
						c-0.3,0.5-0.8,0.8-1.5,0.9C490.7,138.9,489.7,139,488.7,139z"/>
				</g>
				<g class="st4">
					<path class="st7" d="M551.9,139.5c-1.8,0-3.4-0.2-4.8-0.6c-1.6-0.4-2.8-0.8-3.7-1.3s-1.8-1-2.5-1.6c-0.8-0.6-1.3-1-1.5-1.4
						l-0.5-0.5c-0.9-1-1.4-1.9-1.4-2.5c0-1,0.8-2.2,2.3-3.5c0.9-0.8,1.8-1.2,2.7-1.2c1.1,0,2.4,0.7,4.1,2.2l0.3,0.2l0.6,0.6
						c0.2,0.2,0.7,0.5,1.7,1c0.8,0.4,1.6,0.6,2.4,0.6c3.3,0,5-1.2,5-3.7c0-0.8-0.5-1.4-1.3-1.9c-0.9-0.5-2.1-0.9-3.5-1.1
						c-1.3-0.2-2.8-0.6-4.4-1.1c-1.7-0.5-3.1-1.1-4.4-1.8c-1.3-0.7-2.5-1.8-3.4-3.2c-0.9-1.5-1.4-3.2-1.4-5.3c0-2.9,1.2-5.4,3.6-7.5
						c2.3-2.1,5.5-3.2,9.6-3.2c2.1,0,4.1,0.3,5.9,0.8c1.7,0.5,2.9,1,3.7,1.6l1.1,0.7l0.3,0.2c1.1,0.9,1.7,1.7,1.7,2.3
						c0,0.6-0.4,1.5-1.3,2.7c-1.2,1.6-2.5,2.4-3.8,2.4c-0.7,0-1.7-0.3-2.8-1c-0.1-0.1-0.3-0.2-0.6-0.5c-0.2-0.2-0.5-0.4-0.9-0.6
						c-0.2-0.1-0.6-0.3-1.2-0.4c-0.5-0.1-1.2-0.2-2.1-0.2c-0.8,0-1.6,0.3-2.4,0.8c-0.8,0.5-1.2,1.1-1.2,1.9c0,1,0.5,1.7,1.4,2.3
						c0.9,0.6,2.1,1,3.4,1.1c1.2,0.2,2.6,0.5,4.5,0.9c1.7,0.4,3.1,0.9,4.5,1.5s2.6,1.6,3.5,3.1c0.9,1.4,1.3,3.2,1.3,5.3
						c0,2.1-0.5,3.9-1.4,5.5c-0.9,1.6-2.1,2.8-3.6,3.7s-3.1,1.5-4.6,1.9C555.1,139.3,553.5,139.5,551.9,139.5z"/>
					<path class="st7" d="M583.7,139.3c-1.6,0-3.3-0.3-4.9-0.8c-1.8-0.6-3.4-1.3-4.8-2.2c-1.5-1-2.8-2.3-3.6-3.8
						c-0.9-1.6-1.4-3.3-1.4-5.1c0-1.9,0.5-3.6,1.4-5.2c1-1.5,2.2-2.8,3.6-3.7c1.4-0.9,3-1.6,4.7-2.2c1.6-0.5,3.2-0.7,4.9-0.7
						c1.3,0,2.6,0.1,4,0.4c0.2,0,0.4,0.1,0.6,0.2c0.3,0.1,0.5,0.1,0.6,0.2c0.2,0.1,0.3,0.1,0.5,0.2l0.1-0.1c0.7-0.4,1.9-0.6,3.5-0.6
						c1,0,1.9,0.1,2.7,0.3c0.7,0.1,1.2,0.5,1.5,0.9s0.5,0.8,0.5,1.2c0,0.2,0.1,0.7,0.1,1.5v15.3c0,0.8,0,1.3-0.1,1.5
						c0,0.3-0.2,0.6-0.5,1.1c-0.3,0.4-0.7,0.7-1.5,0.9s-1.7,0.3-2.8,0.3c-1.7,0-2.8-0.2-3.4-0.6h-0.1
						C587.8,139,585.9,139.3,583.7,139.3z M583.4,131.4c0.6,0,1.1-0.1,1.6-0.2c0.8-0.2,1.3-0.4,1.7-0.6l1.5-0.6c0-0.7,0-1.6,0-2.7
						c0-1.1,0-1.9,0-2.3c-0.3-0.1-0.6-0.3-0.9-0.5s-0.6-0.4-0.8-0.4s-0.3-0.2-0.6-0.3c-0.3-0.1-0.6-0.2-0.9-0.2c-0.3,0-0.8,0-1.3,0
						c-1.2,0-2.3,0.4-3.3,1.1s-1.6,1.7-1.6,2.9c0,1.3,0.5,2.2,1.5,2.9C581.3,131.1,582.4,131.4,583.4,131.4z"/>
					<path class="st7" d="M597.3,148.9c-1,0-1.6,0-1.8-0.1c-0.5-0.1-1-0.2-1.4-0.4c-0.5-0.3-0.9-0.7-1.1-1.2
						c-0.2-0.5-0.3-1.3-0.3-2.2c0-1.6,0.4-2.6,1.1-3.1c0.8-0.4,2-0.6,3.6-0.6c1,0,2.1-0.3,3.1-0.9c1-0.6,1.5-1.6,1.5-3.2v-18
						c0-0.5,0-0.9,0.1-1.3c0-0.3,0.2-0.6,0.5-1.1c0.3-0.4,0.8-0.7,1.4-0.8c0.6-0.1,1.5-0.2,2.6-0.2c1.2,0,2.1,0.1,2.6,0.2
						c0.6,0.2,1.1,0.5,1.4,0.9c0.3,0.4,0.4,0.8,0.5,1.1c0,0.3,0.1,0.8,0.1,1.5v18c0,3.4-1.5,6.2-4.4,8.2
						C603.9,147.9,600.7,148.9,597.3,148.9z M611.3,109.1c0,0.8,0,1.2-0.1,1.4c0,0.3-0.2,0.6-0.5,1.1c-0.3,0.4-0.7,0.7-1.4,0.9
						c-0.8,0.2-1.7,0.3-2.7,0.3s-1.9-0.1-2.6-0.3c-0.6-0.1-1.1-0.5-1.3-0.9c-0.3-0.4-0.4-0.7-0.5-1.1s-0.1-0.9-0.1-1.5
						c0-0.5,0-1,0.1-1.5c0.1-0.3,0.2-0.7,0.5-1.1s0.8-0.7,1.4-0.9c0.6-0.1,1.5-0.2,2.7-0.2s2,0.1,2.6,0.2s1.1,0.4,1.4,0.9
						c0.3,0.4,0.4,0.7,0.5,1.1c0,0.2,0.1,0.7,0.1,1.5v0.1H611.3z"/>
					<path class="st7" d="M610.9,148.9c-1,0-1.6,0-1.8-0.1c-0.5-0.1-1-0.2-1.3-0.4c-0.5-0.3-0.9-0.7-1.1-1.2
						c-0.2-0.5-0.3-1.3-0.3-2.2c0-1.6,0.4-2.6,1.1-3.1c0.8-0.4,2-0.6,3.6-0.6c1,0,2.1-0.3,3.1-0.9c1-0.6,1.5-1.6,1.5-3.2v-18
						c0-0.5,0-0.9,0.1-1.3c0-0.3,0.2-0.6,0.5-1.1c0.3-0.4,0.8-0.7,1.4-0.8c0.6-0.1,1.5-0.2,2.6-0.2c1.2,0,2.1,0.1,2.6,0.2
						c0.6,0.2,1.1,0.5,1.4,0.9c0.3,0.4,0.5,0.8,0.5,1.1c0,0.3,0.1,0.8,0.1,1.5v18c0,3.4-1.5,6.2-4.4,8.2
						C617.5,147.9,614.3,148.9,610.9,148.9z M624.9,109.1c0,0.8,0,1.2-0.1,1.4c0,0.3-0.2,0.6-0.5,1.1c-0.3,0.4-0.7,0.7-1.4,0.9
						c-0.8,0.2-1.7,0.3-2.7,0.3s-1.9-0.1-2.6-0.3c-0.6-0.1-1.1-0.5-1.4-0.9c-0.3-0.4-0.4-0.7-0.5-1.1s-0.1-0.9-0.1-1.5
						c0-0.5,0-1,0.1-1.5c0.1-0.3,0.2-0.7,0.5-1.1s0.8-0.7,1.4-0.9c0.6-0.1,1.5-0.2,2.7-0.2s2,0.1,2.6,0.2s1.1,0.4,1.4,0.9
						c0.3,0.4,0.4,0.7,0.5,1.1C624.8,107.7,624.9,108.2,624.9,109.1L624.9,109.1z"/>
					<path class="st7" d="M643.1,139.3c-1.6,0-3.3-0.3-4.9-0.8c-1.8-0.6-3.4-1.3-4.8-2.2c-1.5-1-2.8-2.3-3.6-3.8
						c-0.9-1.6-1.4-3.3-1.4-5.1c0-1.9,0.5-3.6,1.4-5.2c1-1.5,2.2-2.8,3.6-3.7c1.4-0.9,3-1.6,4.7-2.2c1.6-0.5,3.2-0.7,4.9-0.7
						c1.3,0,2.6,0.1,4,0.4c0.2,0,0.4,0.1,0.6,0.2c0.3,0.1,0.5,0.1,0.6,0.2c0.2,0.1,0.3,0.1,0.5,0.2l0.1-0.1c0.7-0.4,1.9-0.6,3.5-0.6
						c1,0,1.9,0.1,2.7,0.3c0.7,0.1,1.2,0.5,1.5,0.9s0.5,0.8,0.5,1.2c0,0.2,0.1,0.7,0.1,1.5v15.3c0,0.8,0,1.3-0.1,1.5
						c0,0.3-0.2,0.6-0.5,1.1c-0.3,0.4-0.7,0.7-1.5,0.9s-1.7,0.3-2.8,0.3c-1.7,0-2.8-0.2-3.4-0.6h-0.1
						C647.2,139,645.3,139.3,643.1,139.3z M642.8,131.4c0.6,0,1.1-0.1,1.6-0.2c0.8-0.2,1.3-0.4,1.7-0.6l1.5-0.6c0-0.7,0-1.6,0-2.7
						c0-1.1,0-1.9,0-2.3c-0.3-0.1-0.6-0.3-0.9-0.5s-0.6-0.4-0.8-0.4s-0.3-0.2-0.6-0.3c-0.3-0.1-0.6-0.2-0.9-0.2c-0.3,0-0.8,0-1.3,0
						c-1.2,0-2.3,0.4-3.3,1.1s-1.6,1.7-1.6,2.9c0,1.3,0.5,2.2,1.5,2.9C640.7,131.1,641.8,131.4,642.8,131.4z"/>
					<path class="st7" d="M675.2,139.3c-1.6,0-3.3-0.3-4.9-0.8c-1.8-0.6-3.4-1.3-4.8-2.2c-1.5-1-2.8-2.3-3.6-3.8
						c-0.9-1.6-1.4-3.3-1.4-5.1c0-1.9,0.5-3.6,1.4-5.2c1-1.5,2.2-2.8,3.6-3.7c1.4-0.9,3-1.6,4.7-2.2c1.6-0.5,3.2-0.7,4.9-0.7
						c1.3,0,2.6,0.1,4,0.4c0.3,0.1,0.5,0.1,0.6,0.2V109c0-0.6,0-1.1,0.1-1.6c0-0.3,0.2-0.7,0.5-1.1s0.7-0.7,1.4-0.9
						c0.6-0.1,1.5-0.2,2.8-0.2c1.1,0,1.9,0.1,2.3,0.2c0.7,0.2,1.2,0.4,1.4,0.5c0.3,0.3,0.6,0.5,0.7,0.9c0.1,0.2,0.2,0.5,0.3,1v27.3
						c0,0.8,0,1.3-0.1,1.5c0,0.3-0.2,0.6-0.5,1.1c-0.3,0.4-0.7,0.7-1.5,0.9s-1.7,0.3-2.8,0.3c-1.7,0-2.8-0.2-3.4-0.6h0.1
						C679.4,139,677.4,139.3,675.2,139.3z M675,131.4c0.6,0,1.1-0.1,1.6-0.2c0.8-0.2,1.3-0.4,1.7-0.6l1.5-0.6v-5
						c-0.2-0.1-0.5-0.3-0.8-0.5s-0.5-0.4-0.7-0.4c-0.1-0.1-0.3-0.1-0.5-0.2s-0.5-0.2-0.6-0.2c-0.2,0-0.5-0.1-0.8-0.1s-0.7,0-1.1,0
						c-1.2,0-2.3,0.4-3.3,1.1s-1.6,1.7-1.6,2.9c0,1.3,0.5,2.2,1.5,2.9C672.9,131.1,673.9,131.4,675,131.4z"/>
				</g>
			</g>
			<g id="des-port" class="st4">
				<path class="st7" d="M221.6,171.6h-4.4l-1.1,3.2h-1.4l4.1-11h1.4l4.1,11h-1.4L221.6,171.6z M217.6,170.4h3.6l-1.8-5l0,0
					L217.6,170.4z"/>
				<path class="st7" d="M232.2,174.8h-1.3l-3-11h1.4l2.2,9h0.1l2.5-9h1.4l2.5,9h0.1l2.2-9h1.4l-3,11h-1.3l-2.5-8.8h-0.1
					L232.2,174.8z"/>
				<path class="st7" d="M248.6,172.5c-0.2,1.4-1.6,2.4-3.3,2.4c-2.3,0-3.7-1.6-3.7-4.1s1.4-4.1,3.6-4.1c2.1,0,3.5,1.6,3.5,4v0.5
					H243v0.1c0,1.5,0.9,2.5,2.3,2.5c1,0,1.8-0.5,2-1.3L248.6,172.5L248.6,172.5z M243,170.1h4.3c0-1.3-0.9-2.3-2.1-2.3
					C244,167.8,243.1,168.8,243,170.1z"/>
				<path class="st7" d="M251.4,173.4L251.4,173.4v1.3h-1.3v-11h1.3v4.4l0,0c0.5-0.9,1.4-1.5,2.5-1.5c2,0,3.4,1.6,3.4,4.1
					s-1.3,4.1-3.4,4.1C252.8,174.9,251.9,174.3,251.4,173.4z M251.4,170.8c0,1.8,1,2.9,2.3,2.9c1.4,0,2.3-1.1,2.3-2.9
					c0-1.8-0.9-2.9-2.3-2.9C252.4,167.8,251.4,169,251.4,170.8z"/>
				<path class="st7" d="M265.9,163.7c3.3,0,5.2,2,5.2,5.5s-1.9,5.5-5.2,5.5h-3.7v-11H265.9z M263.5,173.5h2.2
					c2.5,0,3.9-1.5,3.9-4.3s-1.4-4.3-3.9-4.3h-2.2V173.5z"/>
				<path class="st7" d="M279.2,172.5c-0.2,1.4-1.6,2.4-3.3,2.4c-2.3,0-3.7-1.6-3.7-4.1s1.4-4.1,3.6-4.1c2.1,0,3.5,1.6,3.5,4v0.5
					h-5.7v0.1c0,1.5,0.9,2.5,2.3,2.5c1,0,1.8-0.5,2-1.3L279.2,172.5L279.2,172.5z M273.6,170.1h4.3c0-1.3-0.9-2.3-2.1-2.3
					C274.5,167.8,273.7,168.8,273.6,170.1z"/>
				<path class="st7" d="M284.2,174.8h-1.4l-2.9-8h1.4l2.2,6.5l0,0l2.2-6.5h1.4L284.2,174.8z"/>
				<path class="st7" d="M294.5,172.5c-0.2,1.4-1.6,2.4-3.3,2.4c-2.3,0-3.7-1.6-3.7-4.1s1.4-4.1,3.6-4.1c2.1,0,3.5,1.6,3.5,4v0.5
					h-5.7v0.1c0,1.5,0.9,2.5,2.3,2.5c1,0,1.8-0.5,2-1.3L294.5,172.5L294.5,172.5z M288.9,170.1h4.3c0-1.3-0.9-2.3-2.1-2.3
					C289.9,167.8,289,168.8,288.9,170.1z"/>
				<path class="st7" d="M296,163.7h1.3v11H296V163.7z"/>
				<path class="st7" d="M298.8,170.8c0-2.5,1.5-4.1,3.7-4.1s3.7,1.6,3.7,4.1s-1.5,4.1-3.7,4.1C300.3,174.9,298.8,173.3,298.8,170.8
					z M304.8,170.8c0-1.9-0.9-2.9-2.3-2.9s-2.3,1.1-2.3,2.9s0.9,2.9,2.3,2.9S304.8,172.7,304.8,170.8z"/>
				<path class="st7" d="M314.8,170.8c0,2.5-1.4,4.1-3.4,4.1c-1.1,0-2.1-0.6-2.5-1.4l0,0v3.9h-1.3v-10.6h1.3v1.3l0,0
					c0.5-0.9,1.4-1.5,2.6-1.5C313.4,166.7,314.8,168.3,314.8,170.8z M313.4,170.8c0-1.8-0.9-2.9-2.3-2.9s-2.3,1.2-2.3,2.9
					c0,1.8,0.9,2.9,2.3,2.9S313.4,172.6,313.4,170.8z"/>
				<path class="st7" d="M322.7,172.5c-0.2,1.4-1.6,2.4-3.3,2.4c-2.3,0-3.7-1.6-3.7-4.1s1.4-4.1,3.6-4.1c2.1,0,3.5,1.6,3.5,4v0.5
					h-5.7v0.1c0,1.5,0.9,2.5,2.3,2.5c1,0,1.8-0.5,2-1.3L322.7,172.5L322.7,172.5z M317.1,170.1h4.3c0-1.3-0.9-2.3-2.1-2.3
					C318,167.8,317.2,168.8,317.1,170.1z"/>
				<path class="st7" d="M324.1,166.8h1.3v1.3l0,0c0.3-0.9,1-1.4,1.9-1.4c0.2,0,0.4,0,0.5,0.1v1.3c-0.1,0-0.4-0.1-0.7-0.1
					c-1,0-1.7,0.7-1.7,1.9v5h-1.3L324.1,166.8L324.1,166.8z"/>
				<path class="st7" d="M331.8,172.5c0-1.4,1-2.2,2.9-2.3l2.3-0.1v-0.7c0-1-0.6-1.6-1.7-1.6c-1,0-1.7,0.5-1.8,1.3h-1.3
					c0.1-1.4,1.3-2.4,3.1-2.4c1.9,0,3,1,3,2.6v5.5H337v-1.4l0,0c-0.5,0.9-1.5,1.5-2.6,1.5C332.9,174.9,331.8,173.9,331.8,172.5z
					 M337,171.7v-0.6l-2.1,0.1c-1.1,0.1-1.7,0.5-1.7,1.3s0.6,1.3,1.6,1.3C336,173.8,337,172.9,337,171.7z"/>
				<path class="st7" d="M340,166.8h1.3v1.3l0,0c0.4-0.9,1.3-1.4,2.5-1.4c1.7,0,2.8,1.1,2.8,2.9v5.2h-1.3v-4.9c0-1.3-0.6-2-1.8-2
					c-1.3,0-2.1,0.9-2.1,2.2v4.7H340V166.8z"/>
				<path class="st7" d="M347.9,170.8c0-2.5,1.4-4.1,3.4-4.1c1.1,0,2.1,0.6,2.5,1.4l0,0v-4.4h1.3v11h-1.3v-1.3l0,0
					c-0.5,0.9-1.4,1.5-2.6,1.5C349.3,174.9,347.9,173.3,347.9,170.8z M349.3,170.8c0,1.8,0.9,2.9,2.3,2.9s2.3-1.2,2.3-2.9
					c0-1.8-0.9-2.9-2.3-2.9C350.1,167.8,349.3,169,349.3,170.8z"/>
				<path class="st7" d="M364.1,163.7c3.3,0,5.2,2,5.2,5.5s-1.9,5.5-5.2,5.5h-3.7v-11H364.1z M361.8,173.5h2.2
					c2.5,0,3.9-1.5,3.9-4.3s-1.4-4.3-3.9-4.3h-2.2V173.5z"/>
				<path class="st7" d="M377.4,172.5c-0.2,1.4-1.6,2.4-3.3,2.4c-2.3,0-3.7-1.6-3.7-4.1s1.4-4.1,3.6-4.1c2.1,0,3.5,1.6,3.5,4v0.5
					h-5.7v0.1c0,1.5,0.9,2.5,2.3,2.5c1,0,1.8-0.5,2-1.3L377.4,172.5L377.4,172.5z M371.8,170.1h4.3c0-1.3-0.9-2.3-2.1-2.3
					C372.8,167.8,371.9,168.8,371.8,170.1z"/>
				<path class="st7" d="M381.7,166.7c1.6,0,2.9,1,2.9,2.3h-1.3c-0.1-0.8-0.7-1.2-1.7-1.2s-1.6,0.5-1.6,1.2c0,0.6,0.4,0.9,1.3,1.1
					l1.2,0.3c1.6,0.4,2.2,1,2.2,2.2c0,1.4-1.3,2.4-3.2,2.4c-1.7,0-3-0.9-3.1-2.4h1.3c0.1,0.8,0.8,1.3,1.9,1.3s1.7-0.5,1.7-1.2
					c0-0.6-0.3-0.9-1.2-1.1l-1.4-0.4c-1.4-0.4-2.1-1.1-2.1-2.2C378.7,167.6,379.9,166.7,381.7,166.7z"/>
				<path class="st7" d="M386,164.6c0-0.5,0.4-0.8,0.8-0.8c0.5,0,0.8,0.4,0.8,0.8c0,0.5-0.4,0.8-0.8,0.8
					C386.4,165.5,386,165.1,386,164.6z M386.2,166.8h1.3v8h-1.3V166.8z"/>
				<path class="st7" d="M389.2,175.4h1.4c0.3,0.7,1,1.2,2,1.2c1.4,0,2.2-0.8,2.2-2v-1.3l0,0c-0.5,0.9-1.4,1.4-2.5,1.4
					c-2,0-3.4-1.6-3.4-4.1s1.3-4.1,3.4-4.1c1.1,0,2.1,0.5,2.6,1.5l0,0v-1.3h1.3v7.8c0,1.9-1.4,3.2-3.6,3.2
					C390.9,177.8,389.5,176.8,389.2,175.4z M394.9,170.8c0-1.8-0.9-2.9-2.3-2.9s-2.3,1.1-2.3,2.9s0.9,2.9,2.3,2.9
					C393.9,173.7,394.9,172.5,394.9,170.8z"/>
				<path class="st7" d="M397.9,166.8h1.3v1.3l0,0c0.4-0.9,1.3-1.4,2.5-1.4c1.7,0,2.8,1.1,2.8,2.9v5.2h-1.3v-4.9c0-1.3-0.6-2-1.8-2
					c-1.3,0-2.1,0.9-2.1,2.2v4.7H398v-8H397.9z"/>
				<path class="st7" d="M412.8,172.5c-0.2,1.4-1.6,2.4-3.3,2.4c-2.3,0-3.7-1.6-3.7-4.1s1.4-4.1,3.6-4.1c2.1,0,3.5,1.6,3.5,4v0.5
					h-5.7v0.1c0,1.5,0.9,2.5,2.3,2.5c1,0,1.8-0.5,2-1.3L412.8,172.5L412.8,172.5z M407.2,170.1h4.3c0-1.3-0.9-2.3-2.1-2.3
					C408.1,167.8,407.3,168.8,407.2,170.1z"/>
				<path class="st7" d="M414.2,166.8h1.3v1.3l0,0c0.3-0.9,1-1.4,1.9-1.4c0.2,0,0.4,0,0.5,0.1v1.3c-0.1,0-0.4-0.1-0.7-0.1
					c-1,0-1.7,0.7-1.7,1.9v5h-1.3L414.2,166.8L414.2,166.8z"/>
				<path class="st7" d="M423.6,173.4L423.6,173.4v1.3h-1.3v-11h1.3v4.4l0,0c0.5-0.9,1.4-1.5,2.5-1.5c2,0,3.4,1.6,3.4,4.1
					s-1.3,4.1-3.4,4.1C425.1,174.9,424.1,174.3,423.6,173.4z M423.7,170.8c0,1.8,1,2.9,2.3,2.9c1.4,0,2.3-1.1,2.3-2.9
					c0-1.8-0.9-2.9-2.3-2.9C424.6,167.8,423.7,169,423.7,170.8z"/>
				<path class="st7" d="M430.6,172.5c0-1.4,1-2.2,2.9-2.3l2.3-0.1v-0.7c0-1-0.6-1.6-1.7-1.6c-1,0-1.7,0.5-1.8,1.3H431
					c0.1-1.4,1.3-2.4,3.1-2.4c1.9,0,3,1,3,2.6v5.5h-1.3v-1.4l0,0c-0.5,0.9-1.5,1.5-2.6,1.5C431.7,174.9,430.6,173.9,430.6,172.5z
					 M435.8,171.7v-0.6l-2.1,0.1c-1.1,0.1-1.7,0.5-1.7,1.3s0.6,1.3,1.6,1.3C434.8,173.8,435.8,172.9,435.8,171.7z"/>
				<path class="st7" d="M441.6,166.7c1.6,0,2.9,1,2.9,2.3h-1.3c-0.1-0.8-0.7-1.2-1.7-1.2s-1.6,0.5-1.6,1.2c0,0.6,0.4,0.9,1.3,1.1
					l1.2,0.3c1.6,0.4,2.2,1,2.2,2.2c0,1.4-1.3,2.4-3.2,2.4c-1.7,0-3-0.9-3.1-2.4h1.3c0.1,0.8,0.8,1.3,1.8,1.3s1.7-0.5,1.7-1.2
					c0-0.6-0.3-0.9-1.2-1.1l-1.4-0.4c-1.4-0.4-2.1-1.1-2.1-2.2C438.7,167.6,439.9,166.7,441.6,166.7z"/>
				<path class="st7" d="M452.7,172.5c-0.2,1.4-1.6,2.4-3.3,2.4c-2.3,0-3.7-1.6-3.7-4.1s1.4-4.1,3.6-4.1c2.1,0,3.5,1.6,3.5,4v0.5
					h-5.7v0.1c0,1.5,0.9,2.5,2.3,2.5c1,0,1.8-0.5,2-1.3L452.7,172.5L452.7,172.5z M447.1,170.1h4.3c0-1.3-0.9-2.3-2.1-2.3
					C448,167.8,447.2,168.8,447.1,170.1z"/>
				<path class="st7" d="M453.7,170.8c0-2.5,1.4-4.1,3.4-4.1c1.1,0,2.1,0.6,2.5,1.4l0,0v-4.4h1.3v11h-1.3v-1.3l0,0
					c-0.5,0.9-1.4,1.5-2.6,1.5C455.1,174.9,453.7,173.3,453.7,170.8z M455.1,170.8c0,1.8,0.9,2.9,2.3,2.9s2.3-1.2,2.3-2.9
					c0-1.8-0.9-2.9-2.3-2.9C456,167.8,455.1,169,455.1,170.8z"/>
				<path class="st7" d="M465.9,164.6c0-0.5,0.4-0.8,0.8-0.8c0.5,0,0.8,0.4,0.8,0.8c0,0.5-0.4,0.8-0.8,0.8
					C466.3,165.5,465.9,165.1,465.9,164.6z M466.1,166.8h1.3v8h-1.3V166.8z"/>
				<path class="st7" d="M469.2,166.8h1.3v1.3l0,0c0.4-0.9,1.3-1.4,2.5-1.4c1.7,0,2.8,1.1,2.8,2.9v5.2h-1.3v-4.9c0-1.3-0.6-2-1.8-2
					c-1.3,0-2.1,0.9-2.1,2.2v4.7h-1.3v-8H469.2z"/>
				<path class="st7" d="M484.8,163.7c2.1,0,3.5,1.5,3.5,3.5c0,2.1-1.5,3.6-3.5,3.6h-2.5v3.9h-1.4v-11H484.8z M482.3,169.6h2.2
					c1.6,0,2.5-0.9,2.5-2.3c0-1.5-0.9-2.3-2.5-2.3h-2.2V169.6z"/>
				<path class="st7" d="M488.7,172.5c0-1.4,1-2.2,2.9-2.3l2.3-0.1v-0.7c0-1-0.6-1.6-1.7-1.6c-1,0-1.7,0.5-1.8,1.3H489
					c0.1-1.4,1.3-2.4,3.1-2.4c1.9,0,3,1,3,2.6v5.5H494v-1.4l0,0c-0.5,0.9-1.5,1.5-2.6,1.5C489.8,174.9,488.7,173.9,488.7,172.5z
					 M493.9,171.7v-0.6l-2.1,0.1c-1.1,0.1-1.7,0.5-1.7,1.3s0.6,1.3,1.6,1.3C492.9,173.8,493.9,172.9,493.9,171.7z"/>
				<path class="st7" d="M501.8,166.8h1.6l-3.4,3.4l3.6,4.5H502l-3-3.7l-0.7,0.7v3H497v-11h1.3v6.6L501.8,166.8z"/>
				<path class="st7" d="M504.4,164.6c0-0.5,0.4-0.8,0.8-0.8c0.5,0,0.8,0.4,0.8,0.8c0,0.5-0.4,0.8-0.8,0.8
					C504.8,165.5,504.4,165.1,504.4,164.6z M504.6,166.8h1.3v8h-1.3V166.8z"/>
				<path class="st7" d="M510.6,166.7c1.6,0,2.9,1,2.9,2.3h-1.3c-0.1-0.8-0.7-1.2-1.7-1.2s-1.6,0.5-1.6,1.2c0,0.6,0.4,0.9,1.3,1.1
					l1.2,0.3c1.6,0.4,2.2,1,2.2,2.2c0,1.4-1.3,2.4-3.2,2.4c-1.7,0-3-0.9-3.1-2.4h1.3c0.1,0.8,0.8,1.3,1.8,1.3s1.7-0.5,1.7-1.2
					c0-0.6-0.3-0.9-1.2-1.1l-1.4-0.4c-1.4-0.4-2.1-1.1-2.1-2.2C507.6,167.6,508.8,166.7,510.6,166.7z"/>
				<path class="st7" d="M516.8,164.9v1.9h1.5v1.1h-1.5v4.7c0,0.7,0.3,1.1,1,1.1c0.2,0,0.5,0,0.5,0v1.1c-0.2,0-0.5,0.1-0.8,0.1
					c-1.5,0-2-0.6-2-2.1V168h-1.2v-1.1h1.2V165h1.3V164.9z"/>
				<path class="st7" d="M519.3,172.5c0-1.4,1-2.2,2.9-2.3l2.3-0.1v-0.7c0-1-0.6-1.6-1.7-1.6c-1,0-1.7,0.5-1.8,1.3h-1.3
					c0.1-1.4,1.3-2.4,3.1-2.4c1.9,0,3,1,3,2.6v5.5h-1.3v-1.4l0,0c-0.5,0.9-1.5,1.5-2.6,1.5C520.3,174.9,519.3,173.9,519.3,172.5z
					 M524.4,171.7v-0.6l-2.1,0.1c-1.1,0.1-1.7,0.5-1.7,1.3s0.6,1.3,1.6,1.3C523.5,173.8,524.4,172.9,524.4,171.7z"/>
				<path class="st7" d="M527.5,166.8h1.3v1.3l0,0c0.4-0.9,1.3-1.4,2.5-1.4c1.7,0,2.8,1.1,2.8,2.9v5.2h-1.3v-4.9c0-1.3-0.6-2-1.8-2
					c-1.3,0-2.1,0.9-2.1,2.2v4.7h-1.3v-8H527.5z"/>
				<path class="st7" d="M546.8,174.8h-1.4l-1.8-6.2l0,0l-1.8,6.2h-1.4l-2.2-8h1.3l1.6,6.5l0,0l1.8-6.5h1.3l1.8,6.5l0,0l1.6-6.5h1.3
					L546.8,174.8z"/>
				<path class="st7" d="M550,164.6c0-0.5,0.4-0.8,0.8-0.8c0.5,0,0.8,0.4,0.8,0.8c0,0.5-0.4,0.8-0.8,0.8
					C550.4,165.5,550,165.1,550,164.6z M550.2,166.8h1.3v8h-1.3V166.8z"/>
				<path class="st7" d="M555.1,164.9v1.9h1.5v1.1h-1.5v4.7c0,0.7,0.3,1.1,1,1.1c0.2,0,0.5,0,0.6,0v1.1c-0.2,0-0.5,0.1-0.8,0.1
					c-1.5,0-2-0.6-2-2.1V168h-1.2v-1.1h1.2V165h1.2V164.9z"/>
				<path class="st7" d="M558.1,163.7h1.3v4.3l0,0c0.4-0.9,1.3-1.4,2.5-1.4c1.7,0,2.8,1.2,2.8,3v5.1h-1.3v-4.9c0-1.3-0.6-2-1.9-2
					c-1.3,0-2.1,0.9-2.1,2.3v4.6h-1.3V163.7z"/>
				<path class="st7" d="M569.4,172.5c0-1.4,1-2.2,2.9-2.3l2.3-0.1v-0.7c0-1-0.6-1.6-1.7-1.6c-1,0-1.7,0.5-1.8,1.3h-1.3
					c0.1-1.4,1.3-2.4,3.1-2.4c1.9,0,3,1,3,2.6v5.5h-1.3v-1.4l0,0c-0.5,0.9-1.5,1.5-2.6,1.5C570.5,174.9,569.4,173.9,569.4,172.5z
					 M574.6,171.7v-0.6l-2.1,0.1c-1.1,0.1-1.7,0.5-1.7,1.3s0.6,1.3,1.6,1.3C573.6,173.8,574.6,172.9,574.6,171.7z"/>
				<path class="st7" d="M577.6,166.8h1.3v1.3l0,0c0.4-0.9,1.3-1.4,2.5-1.4c1.7,0,2.8,1.1,2.8,2.9v5.2h-1.3v-4.9c0-1.3-0.6-2-1.8-2
					c-1.3,0-2.1,0.9-2.1,2.2v4.7h-1.3v-8H577.6z"/>
				<path class="st7" d="M595.6,172.5c-0.2,1.4-1.6,2.4-3.3,2.4c-2.3,0-3.7-1.6-3.7-4.1s1.4-4.1,3.6-4.1c2.1,0,3.5,1.6,3.5,4v0.5
					H590v0.1c0,1.5,0.9,2.5,2.3,2.5c1,0,1.8-0.5,2-1.3L595.6,172.5L595.6,172.5z M590,170.1h4.3c0-1.3-0.9-2.3-2.1-2.3
					C591,167.8,590.1,168.8,590,170.1z"/>
				<path class="st7" d="M597.2,177.7v-1.1c0.1,0,0.4,0,0.5,0c0.7,0,1.2-0.4,1.5-1.3l0.2-0.6l-2.9-8h1.4l2.2,6.6l0,0l2.2-6.6h1.4
					l-3.1,8.5c-0.7,1.9-1.3,2.4-2.8,2.4C597.6,177.7,597.3,177.7,597.2,177.7z"/>
				<path class="st7" d="M611,172.5c-0.2,1.4-1.6,2.4-3.3,2.4c-2.3,0-3.7-1.6-3.7-4.1s1.4-4.1,3.6-4.1c2.1,0,3.5,1.6,3.5,4v0.5h-5.7
					v0.1c0,1.5,0.9,2.5,2.3,2.5c1,0,1.8-0.5,2-1.3L611,172.5L611,172.5z M605.4,170.1h4.3c0-1.3-0.9-2.3-2.1-2.3
					C606.4,167.8,605.5,168.8,605.4,170.1z"/>
				<path class="st7" d="M616.1,167.9H615v-1.1h1.1v-0.9c0-1.5,0.7-2.3,2.2-2.3c0.3,0,0.6,0,0.8,0.1v1.1c-0.2,0-0.4,0-0.6,0
					c-0.7,0-1.1,0.4-1.1,1.2v0.9h1.6v1.1h-1.6v6.9h-1.3L616.1,167.9L616.1,167.9z"/>
				<path class="st7" d="M619.7,170.8c0-2.5,1.5-4.1,3.7-4.1s3.7,1.6,3.7,4.1s-1.5,4.1-3.7,4.1C621.2,174.9,619.7,173.3,619.7,170.8
					z M625.7,170.8c0-1.9-0.9-2.9-2.3-2.9c-1.4,0-2.3,1.1-2.3,2.9s0.9,2.9,2.3,2.9S625.7,172.7,625.7,170.8z"/>
				<path class="st7" d="M628.4,166.8h1.3v1.3l0,0c0.3-0.9,1-1.4,1.9-1.4c0.2,0,0.4,0,0.5,0.1v1.3c-0.1,0-0.4-0.1-0.7-0.1
					c-1,0-1.7,0.7-1.7,1.9v5h-1.3V166.8z"/>
				<path class="st7" d="M246.9,194.2h1.4c0.3,0.7,1,1.2,2,1.2c1.4,0,2.2-0.8,2.2-2v-1.3l0,0c-0.5,0.9-1.4,1.4-2.5,1.4
					c-2,0-3.4-1.6-3.4-4.1s1.3-4.1,3.4-4.1c1.1,0,2.1,0.5,2.6,1.5l0,0v-1.3h1.3v7.8c0,1.9-1.4,3.2-3.6,3.2
					C248.5,196.6,247.1,195.6,246.9,194.2z M252.5,189.6c0-1.8-0.9-2.9-2.3-2.9c-1.4,0-2.3,1.1-2.3,2.9s0.9,2.9,2.3,2.9
					S252.5,191.3,252.5,189.6z"/>
				<path class="st7" d="M255.6,185.6h1.3v1.3l0,0c0.3-0.9,1-1.4,1.9-1.4c0.2,0,0.4,0,0.5,0.1v1.3c-0.1,0-0.4-0.1-0.7-0.1
					c-1,0-1.7,0.7-1.7,1.9v5h-1.3L255.6,185.6L255.6,185.6z"/>
				<path class="st7" d="M266.6,191.3c-0.2,1.4-1.6,2.4-3.3,2.4c-2.3,0-3.7-1.6-3.7-4.1s1.4-4.1,3.6-4.1c2.1,0,3.5,1.6,3.5,4v0.5
					H261v0.1c0,1.5,0.9,2.5,2.3,2.5c1,0,1.8-0.5,2-1.3L266.6,191.3L266.6,191.3z M261,188.9h4.3c0-1.3-0.9-2.3-2.1-2.3
					C261.9,186.6,261.1,187.6,261,188.9z"/>
				<path class="st7" d="M267.7,191.3c0-1.4,1-2.2,2.9-2.3l2.3-0.1v-0.7c0-1-0.6-1.6-1.7-1.6c-1,0-1.7,0.5-1.8,1.3H268
					c0.1-1.4,1.3-2.4,3.1-2.4c1.9,0,3,1,3,2.6v5.5h-1.3v-1.4l0,0c-0.5,0.9-1.5,1.5-2.6,1.5C268.8,193.7,267.7,192.7,267.7,191.3z
					 M272.9,190.5v-0.7l-2.1,0.1c-1.1,0.1-1.7,0.5-1.7,1.3s0.6,1.3,1.6,1.3C271.9,192.6,272.9,191.7,272.9,190.5z"/>
				<path class="st7" d="M277.7,183.7v1.9h1.5v1.1h-1.5v4.7c0,0.7,0.3,1.1,1,1.1c0.2,0,0.5,0,0.6,0v1.1c-0.2,0-0.5,0.1-0.8,0.1
					c-1.5,0-2-0.6-2-2.1v-4.8h-1.2v-1.1h1.2v-1.9h1.2V183.7z"/>
				<path class="st7" d="M283.4,189.6c0-2.5,1.4-4.1,3.4-4.1c1.1,0,2.1,0.6,2.5,1.4l0,0v-4.4h1.3v11h-1.3v-1.3l0,0
					c-0.5,0.9-1.4,1.5-2.6,1.5C284.8,193.7,283.4,192.1,283.4,189.6z M284.8,189.6c0,1.8,0.9,2.9,2.3,2.9s2.3-1.2,2.3-2.9
					c0-1.8-0.9-2.9-2.3-2.9C285.7,186.6,284.8,187.8,284.8,189.6z"/>
				<path class="st7" d="M299.1,191.3c-0.2,1.4-1.6,2.4-3.3,2.4c-2.3,0-3.7-1.6-3.7-4.1s1.4-4.1,3.6-4.1c2.1,0,3.5,1.6,3.5,4v0.5
					h-5.7v0.1c0,1.5,0.9,2.5,2.3,2.5c1,0,1.8-0.5,2-1.3L299.1,191.3L299.1,191.3z M293.5,188.9h4.3c0-1.3-0.9-2.3-2.1-2.3
					C294.5,186.6,293.6,187.6,293.5,188.9z"/>
				<path class="st7" d="M303.4,185.5c1.6,0,2.9,1,2.9,2.3H305c-0.1-0.8-0.7-1.2-1.7-1.2s-1.6,0.5-1.6,1.2c0,0.6,0.4,0.9,1.3,1.1
					l1.2,0.3c1.6,0.4,2.2,1,2.2,2.2c0,1.4-1.3,2.4-3.2,2.4c-1.7,0-3-0.9-3.1-2.4h1.3c0.1,0.8,0.8,1.3,1.9,1.3s1.7-0.5,1.7-1.2
					c0-0.6-0.3-0.9-1.2-1.1l-1.4-0.4c-1.4-0.4-2.1-1.1-2.1-2.2C300.4,186.4,301.6,185.5,303.4,185.5z"/>
				<path class="st7" d="M307.7,183.5c0-0.5,0.4-0.8,0.8-0.8c0.5,0,0.8,0.4,0.8,0.8c0,0.5-0.4,0.8-0.8,0.8S307.7,183.9,307.7,183.5z
					 M307.9,185.6h1.3v8h-1.3V185.6z"/>
				<path class="st7" d="M311,194.2h1.4c0.3,0.7,1,1.2,2,1.2c1.4,0,2.2-0.8,2.2-2v-1.3l0,0c-0.5,0.9-1.4,1.4-2.5,1.4
					c-2,0-3.4-1.6-3.4-4.1s1.3-4.1,3.4-4.1c1.1,0,2.1,0.5,2.6,1.5l0,0v-1.3h1.3v7.8c0,1.9-1.4,3.2-3.6,3.2
					C312.6,196.6,311.2,195.6,311,194.2z M316.6,189.6c0-1.8-0.9-2.9-2.3-2.9s-2.3,1.1-2.3,2.9s0.9,2.9,2.3,2.9
					C315.6,192.5,316.6,191.3,316.6,189.6z"/>
				<path class="st7" d="M319.6,185.6h1.3v1.3l0,0c0.4-0.9,1.3-1.4,2.5-1.4c1.7,0,2.8,1.1,2.8,2.9v5.2h-1.3v-4.9c0-1.3-0.6-2-1.8-2
					c-1.3,0-2.1,0.9-2.1,2.2v4.7h-1.3v-8H319.6z"/>
				<path class="st7" d="M333.9,182.5h1.1c-1.1,1.3-1.9,4.2-1.9,6.7s0.8,5.4,1.9,6.7h-1.1c-1.5-1.9-2.2-4-2.2-6.7
					C331.7,186.6,332.4,184.4,333.9,182.5z"/>
				<path class="st7" d="M337.7,189.6c0,1.7,1.1,2.9,3,2.9s3-1.2,3-2.9v-7.1h1.4v7.2c0,2.4-1.6,4.1-4.4,4.1s-4.4-1.7-4.4-4.1v-7.2
					h1.4V189.6z"/>
				<path class="st7" d="M347.3,193.6v-11h1.4v11H347.3z"/>
				<path class="st7" d="M351.1,195.9H350c0.7-0.8,1.9-3.2,1.9-6.7s-1.3-5.9-1.9-6.7h1.1c1,1.3,2.2,3.2,2.2,6.7
					C353.3,192.7,352.2,194.6,351.1,195.9z"/>
				<path class="st7" d="M358.5,191.3c0-1.4,1-2.2,2.9-2.3l2.3-0.1v-0.7c0-1-0.6-1.6-1.7-1.6c-1,0-1.7,0.5-1.8,1.3h-1.3
					c0.1-1.4,1.3-2.4,3.1-2.4c1.9,0,3,1,3,2.6v5.5h-1.3v-1.4l0,0c-0.5,0.9-1.5,1.5-2.6,1.5C359.6,193.7,358.5,192.7,358.5,191.3z
					 M363.7,190.5v-0.7l-2.1,0.1c-1.1,0.1-1.7,0.5-1.7,1.3s0.6,1.3,1.6,1.3C362.7,192.6,363.7,191.7,363.7,190.5z"/>
				<path class="st7" d="M366.7,185.6h1.3v1.3l0,0c0.4-0.9,1.3-1.4,2.5-1.4c1.7,0,2.8,1.1,2.8,2.9v5.2H372v-4.9c0-1.3-0.6-2-1.8-2
					c-1.3,0-2.1,0.9-2.1,2.2v4.7h-1.3v-8H366.7z"/>
				<path class="st7" d="M374.6,189.6c0-2.5,1.4-4.1,3.4-4.1c1.1,0,2.1,0.6,2.5,1.4l0,0v-4.4h1.3v11h-1.3v-1.3l0,0
					c-0.5,0.9-1.4,1.5-2.6,1.5C376,193.7,374.6,192.1,374.6,189.6z M375.9,189.6c0,1.8,0.9,2.9,2.3,2.9s2.3-1.2,2.3-2.9
					c0-1.8-0.9-2.9-2.3-2.9C376.8,186.6,375.9,187.8,375.9,189.6z"/>
				<path class="st7" d="M393.4,191.3c-0.2,1.4-1.6,2.4-3.3,2.4c-2.3,0-3.7-1.6-3.7-4.1s1.4-4.1,3.6-4.1c2.1,0,3.5,1.6,3.5,4v0.5
					h-5.7v0.1c0,1.5,0.9,2.5,2.3,2.5c1,0,1.8-0.5,2-1.3L393.4,191.3L393.4,191.3z M387.9,188.9h4.3c0-1.3-0.9-2.3-2.1-2.3
					C388.8,186.6,387.9,187.6,387.9,188.9z"/>
				<path class="st7" d="M398.5,193.6h-1.4l-2.9-8h1.4l2.2,6.5l0,0l2.2-6.5h1.4L398.5,193.6z"/>
				<path class="st7" d="M408.8,191.3c-0.2,1.4-1.6,2.4-3.3,2.4c-2.3,0-3.7-1.6-3.7-4.1s1.4-4.1,3.6-4.1c2.1,0,3.5,1.6,3.5,4v0.5
					h-5.7v0.1c0,1.5,0.9,2.5,2.3,2.5c1,0,1.8-0.5,2-1.3L408.8,191.3L408.8,191.3z M403.2,188.9h4.3c0-1.3-0.9-2.3-2.1-2.3
					C404.2,186.6,403.3,187.6,403.2,188.9z"/>
				<path class="st7" d="M410.3,185.6h1.3v1.3l0,0c0.4-0.9,1.3-1.4,2.5-1.4c1.7,0,2.8,1.1,2.8,2.9v5.2h-1.3v-4.9c0-1.3-0.6-2-1.8-2
					c-1.3,0-2.1,0.9-2.1,2.2v4.7h-1.3v-8H410.3z"/>
				<path class="st7" d="M423.1,192.2L423.1,192.2v1.3h-1.3v-11h1.3v4.4l0,0c0.5-0.9,1.4-1.5,2.5-1.5c2,0,3.4,1.6,3.4,4.1
					s-1.3,4.1-3.4,4.1C424.5,193.7,423.6,193.1,423.1,192.2z M423.1,189.6c0,1.8,1,2.9,2.3,2.9c1.4,0,2.3-1.1,2.3-2.9
					c0-1.8-0.9-2.9-2.3-2.9C424.1,186.6,423.1,187.8,423.1,189.6z"/>
				<path class="st7" d="M437,191.3c-0.2,1.4-1.6,2.4-3.3,2.4c-2.3,0-3.7-1.6-3.7-4.1s1.4-4.1,3.6-4.1c2.1,0,3.5,1.6,3.5,4v0.5h-5.7
					v0.1c0,1.5,0.9,2.5,2.3,2.5c1,0,1.8-0.5,2-1.3L437,191.3L437,191.3z M431.4,188.9h4.3c0-1.3-0.9-2.3-2.1-2.3
					C432.4,186.6,431.5,187.6,431.4,188.9z"/>
				<path class="st7" d="M440.2,183.7v1.9h1.5v1.1h-1.5v4.7c0,0.7,0.3,1.1,1,1.1c0.2,0,0.5,0,0.6,0v1.1c-0.2,0-0.5,0.1-0.8,0.1
					c-1.5,0-2-0.6-2-2.1v-4.8h-1.2v-1.1h1.2v-1.9h1.2V183.7z"/>
				<path class="st7" d="M444.9,183.7v1.9h1.5v1.1h-1.5v4.7c0,0.7,0.3,1.1,1,1.1c0.2,0,0.5,0,0.6,0v1.1c-0.2,0-0.5,0.1-0.8,0.1
					c-1.5,0-2-0.6-2-2.1v-4.8h-1.2v-1.1h1.2v-1.9h1.2V183.7z"/>
				<path class="st7" d="M454.2,191.3c-0.2,1.4-1.6,2.4-3.3,2.4c-2.3,0-3.7-1.6-3.7-4.1s1.4-4.1,3.6-4.1c2.1,0,3.5,1.6,3.5,4v0.5
					h-5.7v0.1c0,1.5,0.9,2.5,2.3,2.5c1,0,1.8-0.5,2-1.3L454.2,191.3L454.2,191.3z M448.6,188.9h4.3c0-1.3-0.9-2.3-2.1-2.3
					C449.6,186.6,448.7,187.6,448.6,188.9z"/>
				<path class="st7" d="M455.7,185.6h1.3v1.3l0,0c0.3-0.9,1-1.4,1.9-1.4c0.2,0,0.4,0,0.5,0.1v1.3c-0.1,0-0.4-0.1-0.7-0.1
					c-1,0-1.7,0.7-1.7,1.9v5h-1.3L455.7,185.6L455.7,185.6z"/>
				<path class="st7" d="M470.3,193.6H469v-1.3l0,0c-0.5,0.9-1.3,1.4-2.5,1.4c-1.7,0-2.8-1.1-2.8-2.9v-5.2h1.3v4.9
					c0,1.3,0.6,2,1.8,2c1.3,0,2.1-0.9,2.1-2.2v-4.7h1.3v8H470.3z"/>
				<path class="st7" d="M474.8,185.5c1.6,0,2.9,1,2.9,2.3h-1.3c-0.1-0.8-0.7-1.2-1.7-1.2s-1.6,0.5-1.6,1.2c0,0.6,0.4,0.9,1.3,1.1
					l1.2,0.3c1.6,0.4,2.2,1,2.2,2.2c0,1.4-1.3,2.4-3.2,2.4c-1.7,0-3-0.9-3.1-2.4h1.3c0.1,0.8,0.8,1.3,1.8,1.3s1.7-0.5,1.7-1.2
					c0-0.6-0.3-0.9-1.2-1.1l-1.4-0.4c-1.4-0.4-2.1-1.1-2.1-2.2C471.8,186.4,473.1,185.5,474.8,185.5z"/>
				<path class="st7" d="M485.9,191.3c-0.2,1.4-1.6,2.4-3.3,2.4c-2.3,0-3.7-1.6-3.7-4.1s1.4-4.1,3.6-4.1c2.1,0,3.5,1.6,3.5,4v0.5
					h-5.7v0.1c0,1.5,0.9,2.5,2.3,2.5c1,0,1.8-0.5,2-1.3L485.9,191.3L485.9,191.3z M480.3,188.9h4.3c0-1.3-0.9-2.3-2.1-2.3
					C481.2,186.6,480.3,187.6,480.3,188.9z"/>
				<path class="st7" d="M487.3,185.6h1.3v1.3l0,0c0.3-0.9,1-1.4,1.9-1.4c0.2,0,0.4,0,0.5,0.1v1.3c-0.1,0-0.4-0.1-0.7-0.1
					c-1,0-1.7,0.7-1.7,1.9v5h-1.3L487.3,185.6L487.3,185.6z"/>
				<path class="st7" d="M501.9,191.3c-0.2,1.4-1.6,2.4-3.3,2.4c-2.3,0-3.7-1.6-3.7-4.1s1.4-4.1,3.6-4.1c2.1,0,3.5,1.6,3.5,4v0.5
					h-5.7v0.1c0,1.5,0.9,2.5,2.3,2.5c1,0,1.8-0.5,2-1.3L501.9,191.3L501.9,191.3z M496.3,188.9h4.3c0-1.3-0.9-2.3-2.1-2.3
					C497.3,186.6,496.4,187.6,496.3,188.9z"/>
				<path class="st7" d="M506,190.5l-1.9,3h-1.5l2.7-4l-2.7-4h1.5l1.9,3l0,0l1.9-3h1.5l-2.7,3.9l2.6,4h-1.5L506,190.5L506,190.5z"/>
				<path class="st7" d="M517.8,189.6c0,2.5-1.4,4.1-3.4,4.1c-1.1,0-2.1-0.6-2.5-1.4l0,0v3.9h-1.3v-10.6h1.3v1.3l0,0
					c0.5-0.9,1.4-1.5,2.6-1.5C516.5,185.5,517.8,187.1,517.8,189.6z M516.5,189.6c0-1.8-0.9-2.9-2.3-2.9c-1.4,0-2.3,1.2-2.3,2.9
					c0,1.8,0.9,2.9,2.3,2.9S516.5,191.4,516.5,189.6z"/>
				<path class="st7" d="M525.8,191.3c-0.2,1.4-1.6,2.4-3.3,2.4c-2.3,0-3.7-1.6-3.7-4.1s1.4-4.1,3.6-4.1c2.1,0,3.5,1.6,3.5,4v0.5
					h-5.7v0.1c0,1.5,0.9,2.5,2.3,2.5c1,0,1.8-0.5,2-1.3L525.8,191.3L525.8,191.3z M520.2,188.9h4.3c0-1.3-0.9-2.3-2.1-2.3
					C521.1,186.6,520.2,187.6,520.2,188.9z"/>
				<path class="st7" d="M527.2,185.6h1.3v1.3l0,0c0.3-0.9,1-1.4,1.9-1.4c0.2,0,0.4,0,0.5,0.1v1.3c-0.1,0-0.4-0.1-0.7-0.1
					c-1,0-1.7,0.7-1.7,1.9v5h-1.3V185.6z"/>
				<path class="st7" d="M531.9,183.5c0-0.5,0.4-0.8,0.8-0.8c0.5,0,0.8,0.4,0.8,0.8c0,0.5-0.4,0.8-0.8,0.8
					C532.3,184.3,531.9,183.9,531.9,183.5z M532.1,185.6h1.3v8h-1.3V185.6z"/>
				<path class="st7" d="M541.8,191.3c-0.2,1.4-1.6,2.4-3.3,2.4c-2.3,0-3.7-1.6-3.7-4.1s1.4-4.1,3.6-4.1c2.1,0,3.5,1.6,3.5,4v0.5
					h-5.7v0.1c0,1.5,0.9,2.5,2.3,2.5c1,0,1.8-0.5,2-1.3L541.8,191.3L541.8,191.3z M536.2,188.9h4.3c0-1.3-0.9-2.3-2.1-2.3
					C537.2,186.6,536.3,187.6,536.2,188.9z"/>
				<path class="st7" d="M543.3,185.6h1.3v1.3l0,0c0.4-0.9,1.3-1.4,2.5-1.4c1.7,0,2.8,1.1,2.8,2.9v5.2h-1.3v-4.9c0-1.3-0.6-2-1.8-2
					c-1.3,0-2.1,0.9-2.1,2.2v4.7h-1.3v-8H543.3z"/>
				<path class="st7" d="M556.8,188.2c-0.2-0.9-0.9-1.6-2-1.6c-1.4,0-2.3,1.1-2.3,2.9c0,1.9,0.9,2.9,2.3,2.9c1.1,0,1.8-0.6,2-1.5
					h1.3c-0.2,1.6-1.5,2.7-3.3,2.7c-2.2,0-3.7-1.6-3.7-4.1s1.5-4.1,3.7-4.1c2,0,3.2,1.3,3.3,2.7h-1.3V188.2z"/>
				<path class="st7" d="M565.9,191.3c-0.2,1.4-1.6,2.4-3.3,2.4c-2.3,0-3.7-1.6-3.7-4.1s1.4-4.1,3.6-4.1c2.1,0,3.5,1.6,3.5,4v0.5
					h-5.7v0.1c0,1.5,0.9,2.5,2.3,2.5c1,0,1.8-0.5,2-1.3L565.9,191.3L565.9,191.3z M560.3,188.9h4.3c0-1.3-0.9-2.3-2.1-2.3
					C561.3,186.6,560.4,187.6,560.3,188.9z"/>
				<path class="st7" d="M573.4,182.5h1.1c-1.1,1.3-1.9,4.2-1.9,6.7s0.8,5.4,1.9,6.7h-1.1c-1.5-1.9-2.2-4-2.2-6.7
					C571.2,186.6,571.9,184.4,573.4,182.5z"/>
				<path class="st7" d="M577.2,189.6c0,1.7,1.1,2.9,3,2.9s3-1.2,3-2.9v-7.1h1.4v7.2c0,2.4-1.6,4.1-4.4,4.1c-2.7,0-4.4-1.7-4.4-4.1
					v-7.2h1.4V189.6z"/>
				<path class="st7" d="M589.8,188L589.8,188l-3.7-5.5h1.7l2.9,4.4h0.1l3-4.4h1.6l-3.8,5.5l0,0l3.7,5.5h-1.7l-2.9-4.4h-0.1l-3,4.4
					H586L589.8,188z"/>
				<path class="st7" d="M597.1,195.9H596c0.7-0.8,1.9-3.2,1.9-6.7s-1.3-5.9-1.9-6.7h1.1c1,1.3,2.2,3.2,2.2,6.7
					C599.2,192.7,598.1,194.6,597.1,195.9z"/>
				<path class="st7" d="M601.8,192.8c0-0.5,0.4-0.9,0.9-0.9s0.9,0.4,0.9,0.9s-0.4,0.9-0.9,0.9S601.8,193.3,601.8,192.8z"/>
			</g>
		</g>
	</g>
</g>
</svg>
